<?xml version="1.0" encoding="UTF-8" standalone="no" ?>
<!DOCTYPE svg PUBLIC "-//W3C//DTD SVG 1.1//EN" "http://www.w3.org/Graphics/SVG/1.1/DTD/svg11.dtd">
<svg xmlns="http://www.w3.org/2000/svg" xmlns:xlink="http://www.w3.org/1999/xlink" version="1.1" width="350" height="350" viewBox="0 0 350 350" xml:space="preserve">
<desc>Created with Fabric.js 1.7.22</desc>
<defs>
</defs>
<g id="icon" style="stroke: none; stroke-width: 1; stroke-dasharray: none; stroke-linecap: butt; stroke-linejoin: miter; stroke-miterlimit: 10; fill: none; fill-rule: nonzero; opacity: 1;" transform="translate(-1.9444444444444287 -1.9444444444444287) scale(3.89 3.89)" >
	<path d="M 19.774 61.808 H 14.74 c -1.933 0 -3.5 -1.567 -3.5 -3.5 s 1.567 -3.5 3.5 -3.5 h 5.035 c 1.933 0 3.5 1.567 3.5 3.5 S 21.708 61.808 19.774 61.808 z" style="stroke: none; stroke-width: 1; stroke-dasharray: none; stroke-linecap: butt; stroke-linejoin: miter; stroke-miterlimit: 10; fill: rgb(0,0,0); fill-rule: nonzero; opacity: 1;" transform=" matrix(1 0 0 1 0 0) " stroke-linecap="round" />
	<circle cx="30.316" cy="62.886" r="5.826" style="stroke: none; stroke-width: 1; stroke-dasharray: none; stroke-linecap: butt; stroke-linejoin: miter; stroke-miterlimit: 10; fill: rgb(0,0,0); fill-rule: nonzero; opacity: 1;" transform="  matrix(1 0 0 1 0 0) "/>
	<circle cx="71.93599999999999" cy="62.886" r="5.826" style="stroke: none; stroke-width: 1; stroke-dasharray: none; stroke-linecap: butt; stroke-linejoin: miter; stroke-miterlimit: 10; fill: rgb(0,0,0); fill-rule: nonzero; opacity: 1;" transform="  matrix(1 0 0 1 0 0) "/>
	<path d="M 89.555 42.337 l -7.271 -13.003 c -0.618 -1.106 -1.787 -1.792 -3.055 -1.792 H 63.168 v -6.253 c 0 -1.933 -1.567 -3.5 -3.5 -3.5 H 14.74 c -1.933 0 -3.5 1.567 -3.5 3.5 s 1.567 3.5 3.5 3.5 h 41.428 v 6.253 v 23.766 H 41.256 c -1.933 0 -3.5 1.567 -3.5 3.5 s 1.567 3.5 3.5 3.5 h 18.412 c 1.933 0 3.5 -1.567 3.5 -3.5 V 34.542 h 14.008 L 83 44.957 v 9.851 c -1.918 0.018 -3.467 1.578 -3.467 3.5 c 0 1.933 1.567 3.5 3.5 3.5 H 86.5 c 1.933 0 3.5 -1.567 3.5 -3.5 V 44.045 C 90 43.447 89.847 42.858 89.555 42.337 z" style="stroke: none; stroke-width: 1; stroke-dasharray: none; stroke-linecap: butt; stroke-linejoin: miter; stroke-miterlimit: 10; fill: rgb(0,0,0); fill-rule: nonzero; opacity: 1;" transform=" matrix(1 0 0 1 0 0) " stroke-linecap="round" />
	<path d="M 23.057 50.229 H 3.5 c -1.933 0 -3.5 -1.567 -3.5 -3.5 s 1.567 -3.5 3.5 -3.5 h 19.557 c 1.933 0 3.5 1.567 3.5 3.5 S 24.99 50.229 23.057 50.229 z" style="stroke: none; stroke-width: 1; stroke-dasharray: none; stroke-linecap: butt; stroke-linejoin: miter; stroke-miterlimit: 10; fill: rgb(0,0,0); fill-rule: nonzero; opacity: 1;" transform=" matrix(1 0 0 1 0 0) " stroke-linecap="round" />
	<path d="M 35.528 37.682 H 3.5 c -1.933 0 -3.5 -1.567 -3.5 -3.5 s 1.567 -3.5 3.5 -3.5 h 32.028 c 1.933 0 3.5 1.567 3.5 3.5 S 37.461 37.682 35.528 37.682 z" style="stroke: none; stroke-width: 1; stroke-dasharray: none; stroke-linecap: butt; stroke-linejoin: miter; stroke-miterlimit: 10; fill: rgb(0,0,0); fill-rule: nonzero; opacity: 1;" transform=" matrix(1 0 0 1 0 0) " stroke-linecap="round" />
</g>
</svg>