<?xml version="1.0" encoding="UTF-8" standalone="no" ?>
<!DOCTYPE svg PUBLIC "-//W3C//DTD SVG 1.1//EN" "http://www.w3.org/Graphics/SVG/1.1/DTD/svg11.dtd">
<svg xmlns="http://www.w3.org/2000/svg" xmlns:xlink="http://www.w3.org/1999/xlink" version="1.1" width="350" height="350" viewBox="0 0 350 350" xml:space="preserve">
<desc>Created with Fabric.js 1.7.22</desc>
<defs>
</defs>
<g id="icon" style="stroke: none; stroke-width: 1; stroke-dasharray: none; stroke-linecap: butt; stroke-linejoin: miter; stroke-miterlimit: 10; fill: none; fill-rule: nonzero; opacity: 1;" transform="translate(-1.9444444444444287 -1.9444444444444287) scale(3.89 3.89)" >
	<path d="M 28.304 84.245 H 6.589 C 2.956 84.245 0 81.438 0 77.987 V 37.293 c 0 -3.45 2.956 -6.258 6.589 -6.258 h 21.714 c 2.556 0 4.776 1.389 5.869 3.414 c 4.544 -3.899 9.671 -14.854 10.153 -24.957 c 0.075 -1.564 1.179 -2.888 2.704 -3.243 c 4.568 -1.061 8.261 -0.391 10.964 1.996 c 4.082 3.605 5.545 10.793 4.628 23.077 l 17.846 -0.029 c 4.795 0 8.691 3.896 8.691 8.686 v 1.034 c 0 1.763 -0.527 3.404 -1.433 4.774 c 1.277 1.513 2.049 3.467 2.049 5.598 v 1.034 c 0 1.875 -0.598 3.613 -1.611 5.034 C 89.313 58.927 90 60.78 90 62.79 v 1.034 c 0 3.353 -1.91 6.269 -4.698 7.715 c 0.27 0.838 0.415 1.73 0.415 2.656 v 1.034 c 0 4.79 -3.896 8.687 -8.686 8.687 H 47.798 c -4.425 0.114 -9.724 -0.682 -13.934 -2.573 C 32.693 83.086 30.638 84.245 28.304 84.245 z M 7 77.245 h 20.893 v -1.734 c 0 -1.446 0.889 -2.743 2.238 -3.265 c 1.35 -0.521 2.879 -0.159 3.852 0.91 c 1.793 1.973 7.412 3.908 13.727 3.761 l 29.321 -0.001 c 0.914 0 1.686 -0.772 1.686 -1.687 v -1.034 c 0 -0.914 -0.771 -1.686 -1.686 -1.686 c -1.933 0 -3.5 -1.567 -3.5 -3.5 s 1.567 -3.5 3.5 -3.5 h 4.283 c 0.914 0 1.686 -0.771 1.686 -1.686 V 62.79 c 0 -0.914 -0.771 -1.686 -1.686 -1.686 h -0.226 c -1.933 0 -3.5 -1.567 -3.5 -3.5 s 1.567 -3.5 3.5 -3.5 c 0.914 0 1.686 -0.771 1.686 -1.686 v -1.034 c 0 -0.914 -0.771 -1.686 -1.686 -1.686 h -0.616 c -1.933 0 -3.5 -1.567 -3.5 -3.5 s 1.567 -3.5 3.5 -3.5 c 0.914 0 1.686 -0.772 1.686 -1.687 v -1.034 c 0 -0.914 -0.771 -1.686 -1.686 -1.686 l -21.676 0.035 c -0.002 0 -0.004 0 -0.006 0 c -0.99 0 -1.935 -0.42 -2.599 -1.155 c -0.665 -0.737 -0.985 -1.722 -0.883 -2.709 c 1.604 -15.332 -0.533 -19.72 -1.95 -20.971 c -0.237 -0.21 -0.814 -0.719 -2.299 -0.736 c -1.575 12.63 -9.335 29.568 -19.465 30.154 c -0.965 0.058 -1.904 -0.288 -2.604 -0.949 s -1.098 -1.582 -1.098 -2.545 v -1.382 H 7 V 77.245 z" style="stroke: none; stroke-width: 1; stroke-dasharray: none; stroke-linecap: butt; stroke-linejoin: miter; stroke-miterlimit: 10; fill: rgb(0,0,0); fill-rule: nonzero; opacity: 1;" transform=" matrix(1 0 0 1 0 0) " stroke-linecap="round" />
</g>
</svg>